<svg xmlns="http://www.w3.org/2000/svg" xmlns:xlink="http://www.w3.org/1999/xlink" width="500" zoomAndPan="magnify" viewBox="0 0 375 374.999991" height="500" preserveAspectRatio="xMidYMid meet" version="1.0"><path fill="#444140" d="M 114.0625 145.507812 C 111.71875 149.023438 110.9375 154.882812 111.132812 169.335938 C 111.132812 192.96875 110.351562 194.726562 100.78125 191.210938 C 94.53125 188.867188 93.164062 189.0625 88.476562 192.578125 C 76.367188 201.367188 69.140625 241.992188 77.34375 253.515625 C 85.351562 264.257812 105.078125 268.945312 120.703125 263.476562 C 130.46875 260.15625 132.03125 253.320312 134.765625 201.953125 C 137.109375 161.914062 136.132812 152.539062 129.6875 145.507812 C 124.023438 139.257812 118.164062 139.257812 114.0625 145.507812 Z M 128.515625 150.390625 C 130.46875 154.296875 130.859375 163.476562 130.078125 192.382812 C 128.90625 232.617188 126.367188 253.320312 122.070312 257.617188 C 120.507812 259.179688 114.0625 260.9375 107.8125 261.328125 C 81.445312 263.28125 73.046875 249.21875 81.054688 217.773438 C 85.9375 199.414062 96.289062 188.867188 102.929688 195.507812 C 104.101562 196.679688 107.03125 197.265625 109.570312 196.875 C 114.0625 196.289062 114.257812 195.703125 115.234375 173.828125 C 115.820312 161.523438 116.992188 149.804688 117.96875 147.851562 C 120.117188 143.164062 125.195312 144.335938 128.515625 150.390625 Z M 128.515625 150.390625 " fill-opacity="1" fill-rule="nonzero"/><path fill="#444140" d="M 32.226562 178.90625 C 21.289062 182.8125 16.015625 188.476562 8.59375 204.101562 C -0.78125 223.242188 -0.78125 235.9375 8.398438 245.117188 C 16.40625 253.125 25.976562 255.273438 35.742188 251.171875 C 39.84375 249.609375 42.96875 249.023438 42.96875 250.195312 C 42.96875 251.367188 46.875 251.953125 52.34375 251.5625 L 61.523438 250.976562 L 66.015625 234.375 C 71.679688 212.5 73.632812 190.625 70.3125 186.523438 C 68.945312 184.765625 65.820312 183.59375 63.476562 183.984375 C 61.328125 184.179688 56.835938 182.617188 53.90625 180.078125 C 47.460938 175.195312 43.164062 174.804688 32.226562 178.90625 Z M 53.90625 183.984375 C 57.03125 186.523438 61.328125 188.085938 64.257812 187.695312 C 68.945312 187.109375 68.945312 187.109375 67.773438 200.976562 C 66.210938 220.898438 58.984375 245.703125 54.296875 248.242188 C 49.023438 251.171875 48.046875 249.414062 50.585938 241.992188 C 53.515625 233.203125 51.757812 232.617188 44.335938 239.648438 C 33.007812 250.390625 25.78125 252.34375 15.820312 247.265625 C 4.492188 241.40625 2.929688 225.976562 11.523438 208.007812 C 17.96875 194.335938 24.804688 186.523438 33.59375 182.617188 C 42.578125 178.710938 47.460938 179.101562 53.90625 183.984375 Z M 53.90625 183.984375 " fill-opacity="1" fill-rule="nonzero"/><path fill="#444140" d="M 171.484375 183.59375 C 155.078125 188.476562 140.234375 208.59375 137.695312 229.492188 C 135.546875 247.460938 148.632812 261.523438 165.039062 258.789062 C 169.335938 258.007812 178.320312 257.617188 184.765625 257.8125 L 196.679688 258.007812 L 200.78125 242.773438 C 205.273438 225.78125 208.984375 206.640625 208.984375 200 C 208.984375 194.140625 203.710938 189.0625 198.4375 189.84375 C 196.09375 190.039062 191.601562 188.476562 188.671875 185.9375 C 182.8125 181.445312 180.078125 181.054688 171.484375 183.59375 Z M 189.648438 190.234375 C 193.164062 193.164062 196.679688 194.53125 199.21875 193.945312 C 205.078125 192.382812 205.664062 196.679688 202.34375 216.210938 C 197.65625 242.1875 193.945312 253.320312 189.453125 254.492188 C 184.179688 255.859375 183.007812 253.320312 185.742188 247.265625 C 189.453125 239.453125 186.523438 239.257812 178.90625 246.875 C 166.796875 258.984375 152.34375 258.398438 144.53125 245.703125 C 139.648438 237.695312 139.648438 233.203125 144.53125 219.921875 C 150.195312 204.882812 158.984375 193.75 168.554688 189.257812 C 179.296875 184.375 182.8125 184.570312 189.648438 190.234375 Z M 189.648438 190.234375 " fill-opacity="1" fill-rule="nonzero"/><path fill="#444140" d="M 289.257812 184.765625 C 284.960938 187.890625 284.765625 189.0625 285.9375 199.804688 C 286.523438 206.054688 286.132812 221.875 284.960938 234.765625 C 283.007812 256.054688 283.203125 258.398438 286.328125 261.914062 C 290.234375 266.210938 299.21875 266.796875 302.539062 262.890625 C 303.710938 261.523438 306.445312 251.171875 308.59375 240.234375 C 313.476562 214.84375 314.0625 212.890625 317.578125 212.890625 C 320.898438 212.890625 321.289062 222.65625 318.359375 239.453125 C 313.867188 265.234375 313.671875 263.28125 320.117188 266.601562 C 325.78125 269.335938 326.171875 269.335938 328.90625 265.039062 C 330.664062 262.695312 334.179688 252.929688 336.914062 243.554688 C 344.140625 218.554688 346.875 212.890625 351.367188 212.890625 C 355.664062 212.890625 355.664062 212.109375 350.390625 244.921875 C 347.265625 263.671875 347.851562 265.625 356.640625 265.625 C 364.648438 265.625 372.65625 238.671875 373.4375 207.8125 C 374.023438 191.601562 373.828125 190.820312 368.554688 186.328125 C 360.546875 179.492188 352.734375 180.46875 342.382812 189.84375 C 338.085938 193.75 338.085938 193.75 332.8125 189.648438 C 326.757812 184.765625 321.484375 184.570312 313.867188 188.476562 C 308.984375 191.015625 308.203125 190.820312 303.710938 186.328125 C 298.242188 180.859375 295.507812 180.46875 289.257812 184.765625 Z M 302.734375 195.507812 C 302.734375 204.6875 304.101562 204.882812 310.742188 197.460938 C 316.015625 191.40625 324.023438 188.28125 328.90625 190.039062 C 330.273438 190.625 332.03125 193.75 332.617188 197.070312 C 334.179688 204.296875 336.328125 204.6875 340.429688 198.4375 C 342.1875 195.898438 346.679688 191.796875 350.585938 189.453125 C 359.375 183.984375 366.601562 185.351562 368.359375 192.578125 C 371.679688 205.664062 364.0625 253.90625 357.617188 260.351562 C 353.320312 264.648438 352.929688 259.375 356.25 239.0625 C 358.203125 227.734375 359.179688 216.210938 358.59375 213.671875 C 357.421875 209.375 356.445312 208.789062 350 209.375 L 342.773438 209.960938 L 336.71875 228.515625 C 333.203125 238.671875 329.492188 250.78125 328.320312 255.273438 C 326.757812 260.742188 325 263.671875 322.851562 263.671875 C 320.3125 263.671875 320.117188 262.109375 321.09375 255.273438 C 321.679688 250.78125 322.851562 239.648438 323.4375 230.46875 C 324.609375 216.015625 324.21875 213.28125 321.289062 210.351562 C 318.359375 207.226562 317.382812 207.226562 313.671875 209.570312 C 310.546875 211.71875 308.398438 217.382812 304.6875 234.570312 C 299.21875 259.375 298.242188 261.71875 292.96875 261.71875 C 287.890625 261.71875 287.109375 257.8125 289.0625 243.75 C 290.039062 237.109375 291.015625 222.070312 291.015625 210.546875 C 291.015625 192.96875 291.601562 189.257812 294.335938 187.890625 C 299.804688 184.765625 302.734375 187.304688 302.734375 195.507812 Z M 302.734375 195.507812 " fill-opacity="1" fill-rule="nonzero"/><path fill="#444140" d="M 236.132812 190.039062 C 217.578125 199.804688 205.273438 233.203125 213.867188 250 C 219.140625 260.15625 236.132812 265.039062 246.679688 259.570312 C 249.804688 257.8125 250.976562 257.8125 251.5625 259.570312 C 251.953125 260.742188 256.054688 261.71875 260.742188 261.71875 C 269.140625 261.71875 269.335938 261.71875 272.265625 252.34375 C 276.367188 239.257812 281.25 214.453125 281.25 205.46875 C 281.25 196.679688 278.515625 193.359375 271.484375 193.359375 C 268.554688 193.359375 264.648438 191.601562 262.695312 189.453125 C 257.8125 184.179688 246.875 184.375 236.132812 190.039062 Z M 262.890625 193.554688 C 265.234375 196.09375 268.164062 197.265625 271.09375 196.679688 C 277.539062 195.507812 278.320312 199.21875 275.78125 217.578125 C 272.070312 242.578125 267.1875 256.640625 262.109375 257.421875 C 257.421875 258.203125 256.835938 256.640625 259.765625 249.21875 C 262.109375 242.773438 258.007812 242.1875 254.296875 248.242188 C 250.78125 253.90625 235.742188 260.15625 229.492188 258.59375 C 221.679688 256.640625 214.84375 247.070312 214.84375 238.28125 C 214.84375 221.484375 228.320312 197.65625 241.015625 192.1875 C 250 188.28125 258.59375 188.867188 262.890625 193.554688 Z M 262.890625 193.554688 " fill-opacity="1" fill-rule="nonzero"/></svg>